<?xml version="1.0" encoding="UTF-8" standalone="no"?>
<!-- Created with Inkscape (http://www.inkscape.org/) -->

<svg
   width="210mm"
   height="210mm"
   viewBox="0 0 210 210"
   version="1.1"
   id="svg1"
   xml:space="preserve"
   xmlns="http://www.w3.org/2000/svg"
   xmlns:svg="http://www.w3.org/2000/svg"><defs
     id="defs1" /><g
     id="layer1"><rect
       style="display:inline;fill:#3257a7;fill-opacity:1;stroke:#000000;stroke-width:0.772149;stroke-linecap:square;stroke-linejoin:round;stroke-miterlimit:9.4;stroke-dasharray:none;paint-order:stroke fill markers"
       id="rect9"
       width="209.22784"
       height="209.22784"
       x="0.38607472"
       y="0.38607472" /><g
       id="g6"
       style="display:inline"><path
         d="m 28.403434,17.329175 -0.853694,0.488859 c -1.881225,1.07788 -2.573961,3.183834 -1.798857,5.46685 0.55482,1.634185 7.055288,16.733789 7.898226,18.346167 3.267847,6.250761 9.509949,10.591758 16.472379,11.456148 l 1.47743,0.183451 18.087268,-0.10852 18.087268,-0.108004 v 6.183085 6.182568 H 70.640649 53.507845 l -1.580265,0.321428 c -3.020388,0.614184 -6.092331,2.19587 -8.458915,4.355806 L 42.05118,71.390991 40.838334,73.2038 c -2.296799,3.433753 -2.843973,5.596344 -3.401859,13.441557 -0.17646,2.481447 -0.548255,7.649608 -0.826307,11.484571 -0.51428,7.093072 -2.540839,36.178252 -3.493843,50.141642 -0.28868,4.22974 -0.747824,10.82823 -1.020093,14.66319 -0.272269,3.83496 -0.557077,7.9878 -0.633036,9.22889 l -0.137976,2.25671 0.241845,1.84485 c 1.006216,7.66277 6.691419,13.57046 14.30042,14.85956 l 0.992704,0.16795 58.755071,-0.0336 58.75507,-0.0341 1.53789,-0.44855 c 6.12098,-1.78546 10.34424,-6.06113 12.14861,-12.29951 l 0.46199,-1.59732 -0.0171,-3.48609 -0.0171,-3.48609 -1.47381,-19.58537 c -1.56058,-20.73945 -2.77289,-37.37513 -3.60908,-49.52618 -1.49253,-21.688738 -1.50002,-21.756671 -2.59778,-24.505476 -0.89805,-2.248767 -2.3023,-4.377826 -3.97856,-6.031157 l -1.47588,-1.455725 -1.63918,-0.984436 c -1.85475,-1.113712 -3.88996,-1.878703 -6.14381,-2.309936 l -1.53841,-0.294556 H 139.02192 122.0152 l 0.0543,-5.998083 0.0543,-5.998601 19.17506,-0.0186 19.17454,-0.0186 1.6061,-0.438733 c 3.93731,-1.075474 7.26445,-2.922439 10.07742,-5.59449 2.89149,-2.746628 4.21496,-4.863756 6.55826,-10.488249 0.71705,-1.721087 1.82874,-4.328687 2.47065,-5.794995 1.98726,-4.539411 3.20304,-7.728623 3.31814,-8.703862 0.21088,-1.786624 -0.72411,-3.663584 -2.20761,-4.430737 l -0.57258,-0.296106 -76.66044,-0.05219 z m 76.696606,8.193298 69.21128,0.0098 -0.10748,0.338997 c -0.0591,0.186343 -1.20191,2.876759 -2.5399,5.978963 l -2.43293,5.640483 -0.84077,1.238167 c -1.77682,2.616485 -4.2506,4.480643 -7.34684,5.536613 l -1.59525,0.544153 -53.93521,0.03152 -53.935726,0.03204 -1.259872,-0.277502 c -4.054996,-0.89344 -7.400064,-3.432108 -9.273336,-7.037814 -0.740757,-1.425821 -5.155241,-11.635931 -5.155241,-11.923303 0,-0.06707 31.145038,-0.117486 69.211275,-0.112138 z m -9.123469,27.592631 h 9.023219 9.02374 v 6.04976 6.04976 h -9.02374 -9.023219 v -6.04976 z m 60.249549,20.507792 1.33532,0.412378 1.3348,0.412378 1.21078,0.891419 1.21027,0.890901 0.78806,1.187525 c 0.43347,0.653052 0.95482,1.721511 1.15807,2.374532 l 0.36949,1.187524 0.32297,4.268474 c 0.17774,2.347742 0.73913,10.082659 1.24747,17.188613 0.50834,7.10596 1.47611,20.57951 2.15078,29.94133 0.67466,9.36181 1.5013,20.8973 1.83709,25.63461 0.33578,4.7373 0.71521,10.0681 0.84285,11.84579 0.12762,1.77768 0.1914,4.00042 0.14211,4.93975 l -0.0894,1.7079 -0.72864,1.51981 -0.72812,1.52032 -0.98547,0.98857 c -1.1301,1.13393 -2.78991,2.03575 -4.36098,2.36936 l -1.08675,0.23048 -57.25801,-0.0238 c -31.49188,-0.0133 -57.70578,-0.0994 -58.252771,-0.19121 -3.31535,-0.55629 -6.057443,-3.3813 -6.833174,-7.03936 l -0.310059,-1.46141 0.119889,-1.43557 c 0.066,-0.78955 0.489038,-6.74203 0.939995,-13.22762 1.169065,-16.81333 2.358713,-33.62746 3.068546,-43.37358 0.336815,-4.62451 1.027757,-14.13009 1.535307,-21.123255 0.507551,-6.993163 1.009205,-13.279429 1.115177,-13.969173 0.264268,-1.72006 1.087322,-3.359057 2.396237,-4.772835 l 1.101224,-1.189592 1.391647,-0.695565 1.391646,-0.696081 5.639966,-0.135909 c 3.101806,-0.07472 26.417087,-0.144801 51.81182,-0.156063 z"
         style="display:inline"
         id="path1" /><path
         style="display:inline;fill:#ffff00;stroke:#000000;stroke-width:5.50081;stroke-linecap:square;stroke-linejoin:round;stroke-miterlimit:9.4;paint-order:stroke fill markers"
         d="m 382.04839,635.54197 c -13.84461,-1.64613 -23.63188,-3.69399 -34.07303,-7.12934 -7.01191,-2.30706 -21.59688,-8.44994 -21.59688,-9.09614 0,-0.26079 2.64349,-4.69443 5.87441,-9.85254 7.48387,-11.94784 7.95211,-12.88295 7.95211,-15.88117 0,-4.48174 -4.79556,-8.50296 -10.14033,-8.50296 -2.97238,0 -5.54449,2.74393 -13.51029,14.41281 -3.60217,5.27672 -6.90536,9.59575 -7.34041,9.59785 -2.30913,0.0111 -15.91541,-10.69763 -23.04314,-18.13598 -8.60151,-8.97637 -20.19238,-23.07237 -20.19238,-24.55655 0,-0.52142 2.27142,-2.0919 5.0476,-3.48996 7.08099,-3.56593 17.38601,-9.72203 19.03565,-11.37166 1.01513,-1.01513 1.38664,-2.42074 1.38664,-5.2463 0,-3.41057 -0.27922,-4.1303 -2.3997,-6.18555 -2.0683,-2.00467 -2.91759,-2.32589 -6.1496,-2.32589 -3.34081,0 -4.96444,0.671 -14.88343,6.15094 l -11.13355,6.15094 -1.61371,-3.16614 c -2.33621,-4.58369 -7.00777,-16.52935 -9.26088,-23.68103 -1.70847,-5.42291 -3.66784,-16.26861 -5.08284,-28.13499 l -0.4469,-3.74774 8.56602,-0.44953 c 21.59433,-1.13326 21.77995,-1.15668 23.47593,-2.96196 2.00295,-2.13205 2.66874,-6.90889 1.46944,-10.54281 -1.4583,-4.4187 -4.17965,-5.11169 -20.07328,-5.11169 h -13.10553 l 0.9283,-7.45904 c 2.10908,-16.94674 6.45856,-32.37414 13.02486,-46.19853 l 2.8463,-5.99248 13.01339,7.28417 13.01339,7.28418 3.04026,-1.47178 c 1.67215,-0.80946 3.9232,-2.39334 5.00233,-3.51971 1.77559,-1.85332 1.91543,-2.38947 1.47144,-5.64161 -0.64137,-4.69791 -2.26957,-6.1759 -14.40316,-13.07438 -5.3003,-3.01346 -10.18006,-5.87898 -10.84391,-6.36783 -1.07834,-0.79406 -0.71091,-1.54818 3.44683,-7.07436 8.30308,-11.03587 22.03973,-24.93157 30.95565,-31.31407 4.45559,-3.18956 8.33808,-5.78719 8.62774,-5.77251 0.28967,0.0147 3.59185,5.08031 7.33817,11.25696 3.74633,6.17665 7.26682,11.60814 7.8233,12.06998 0.55649,0.46184 2.45316,1.00218 4.21484,1.20074 4.44494,0.50101 8.36148,-1.75294 10.0786,-5.80017 1.23165,-2.90301 1.22622,-3.10684 -0.15914,-5.96788 -0.78889,-1.62922 -4.03493,-7.21635 -7.21342,-12.41585 -3.1785,-5.1995 -5.64462,-9.67119 -5.48029,-9.93709 0.47382,-0.76665 17.08441,-7.62999 22.59058,-9.33421 11.4585,-3.54654 33.53828,-6.91272 36.89461,-5.62477 1.07435,0.41227 1.21296,2.07569 1.21296,14.55687 v 14.09141 l 2.97645,2.39195 c 2.55378,2.05227 3.38436,2.33723 5.84893,2.00666 1.57987,-0.2119 3.96055,-1.21519 5.29042,-2.22953 2.87601,-2.19364 3.32978,-4.19485 3.34125,-14.73562 0.004,-4.04376 0.22324,-9.41148 0.4863,-11.92826 l 0.47828,-4.57597 7.07707,0.43115 c 13.26994,0.80844 30.2065,5.05647 45.1639,11.32802 9.14917,3.83619 9.08738,2.37054 0.69286,16.43306 -5.29201,8.86517 -7.21479,12.70956 -6.90233,13.80042 1.22102,4.26288 5.85392,7.69439 10.39108,7.69649 2.98708,10e-4 4.70804,-1.72293 11.04435,-11.06582 2.52226,-3.71908 5.70466,-8.31516 7.072,-10.2135 l 2.48607,-3.45152 3.08825,2.12477 c 4.10892,2.82701 15.27384,12.58939 23.26609,20.3434 4.12968,4.00658 8.25383,8.99407 11.43674,13.83086 l 4.97799,7.56464 -7.43433,4.13437 c -10.70193,5.95155 -17.1808,10.1593 -18.00019,11.69034 -2.56771,4.79781 2.02581,13.80024 7.04161,13.80024 2.06226,0 10.62749,-4.21619 20.62537,-10.15275 l 7.20957,-4.2809 1.75916,3.03249 c 5.97708,10.30345 12.31277,33.38634 14.63505,53.32009 l 0.4327,3.71409 -14.0194,0.49487 -14.01939,0.49488 -2.36506,2.51168 c -1.98773,2.11095 -2.36449,3.06488 -2.36145,5.97899 0.003,2.51887 0.45963,4.03719 1.67071,5.55064 1.48012,1.84967 2.31629,2.15133 7.45543,2.68968 3.18358,0.3335 9.79983,0.62402 14.70279,0.64559 7.23821,0.0319 8.91446,0.23546 8.91446,1.08277 0,4.68526 -4.73121,27.72616 -7.2253,35.18706 -2.96966,8.88353 -8.20669,21.71336 -9.29594,22.77348 -0.31899,0.31045 -5.61029,-2.19568 -11.75845,-5.56919 -11.56311,-6.34469 -13.58556,-6.93821 -18.1822,-5.33581 -1.69639,0.59137 -2.67263,1.66579 -3.77221,4.15157 -2.85397,6.45188 -1.05423,8.76853 13.29288,17.11076 5.30863,3.08674 10.11266,5.90451 10.67563,6.2617 1.32359,0.83981 -5.00162,9.018 -17.33411,22.41218 -6.87545,7.46736 -10.64947,10.86127 -16.87576,15.17609 -4.41089,3.05675 -8.11227,5.44162 -8.2253,5.29972 -0.11302,-0.14191 -3.07547,-4.61139 -6.58323,-9.93219 -7.9957,-12.12837 -10.34949,-14.70415 -13.43692,-14.70415 -3.12843,0 -6.14472,1.6712 -8.43443,4.67317 -2.77871,3.64307 -2.00196,6.3159 5.09206,17.52202 8.69913,13.74164 8.3423,12.23503 3.44849,14.56001 -16.33855,7.76222 -34.02094,12.72231 -49.28648,13.82538 -3.60218,0.26029 -7.12248,0.63339 -7.8229,0.82912 -1.18085,0.32999 -1.27349,-0.65616 -1.27349,-13.55581 0,-15.15317 -0.42788,-17.17232 -3.98208,-18.79172 -2.61618,-1.19201 -6.57856,-1.09036 -9.14054,0.2345 -3.89396,2.01363 -4.34245,3.96278 -4.34245,18.87203 v 13.4988 l -2.00121,-0.10904 c -1.10066,-0.06 -2.98362,-0.22584 -4.18434,-0.3686 z m 26.26846,-118.93901 c 9.53573,-3.53002 16.51354,-10.01583 21.47026,-19.95641 2.7047,-5.42422 3.23223,-7.46075 4.75688,-18.3639 0.24779,-1.772 4.59922,-7.56031 17.23258,-22.92291 24.33631,-29.59378 41.39521,-50.63294 44.04201,-54.31812 2.48217,-3.45593 3.03929,-7.28559 1.27312,-8.75138 -0.56465,-0.46862 -2.12013,-1.02157 -3.45663,-1.22878 -2.02899,-0.31457 -3.45075,0.26793 -8.61554,3.52982 -3.40205,2.14861 -23.05025,14.20478 -43.66268,26.79149 l -37.47712,22.88493 -6.91326,0.37842 c -6.37698,0.34906 -7.45393,0.64195 -13.88318,3.77577 -8.53626,4.16083 -14.1191,9.69463 -18.61503,18.45146 -3.24492,6.32022 -5.06261,14.78182 -4.23756,19.72645 0.65698,3.93742 3.12031,11.66448 4.7151,14.79054 1.88442,3.69377 10.01918,11.09974 14.71618,13.39777 8.71601,4.26435 20.09175,4.98482 28.65487,1.81485 z"
         id="path2"
         transform="scale(0.26458333)" /><path
         style="display:inline;fill:#ffd500;fill-opacity:1;stroke:#000000;stroke-width:11.9931;stroke-linecap:square;stroke-linejoin:round;stroke-miterlimit:9.4;paint-order:stroke fill markers"
         d="m 196.73723,690.62453 c -11.34413,-0.24162 -22.21901,-0.81075 -24.16641,-1.2647 -7.8572,-1.83161 -17.91831,-13.65385 -21.11975,-24.81666 -0.74866,-2.6104 2.20228,-53.13787 7.27932,-124.64004 16.16822,-227.70404 16.53603,-232.10277 20.10557,-240.44572 3.56091,-8.32279 11.62472,-16.33569 18.32701,-18.21131 2.38372,-0.66708 93.28376,-1.21287 202.00009,-1.21287 h 197.66606 l 6.59065,4.56724 c 4.25625,2.94954 7.97627,7.44526 10.50268,12.69272 3.79583,7.88409 4.26769,13.10049 15.88274,175.58682 6.58387,92.10373 11.97068,173.70277 11.97068,181.33117 0,10.55646 -0.72928,15.29935 -3.05278,19.85379 -3.38853,6.64207 -12.60355,13.76665 -20.87371,16.13851 -4.78709,1.37293 -359.75823,1.72783 -421.11215,0.42105 z M 428.37944,665.4682 c 79.5543,-13.79607 140.65782,-75.2262 154.73261,-155.55969 2.92816,-16.7128 1.2402,-58.11058 -3.02306,-74.14143 -8.22384,-30.92362 -22.63071,-57.22424 -43.82139,-79.99864 -73.05471,-78.51457 -198.05798,-80.87498 -273.71449,-5.16849 -35.47419,35.49763 -53.94706,80.84227 -53.89561,132.29549 0.0431,43.13814 13.51698,81.12712 40.9228,115.38015 41.51202,51.88362 112.73516,78.64922 178.79914,67.19261 z"
         id="path3"
         transform="scale(0.26458333)" /><path
         style="display:inline;fill:#ffd500;fill-opacity:1;stroke:#000000;stroke-width:11.9931;stroke-linecap:square;stroke-linejoin:round;stroke-miterlimit:9.4;paint-order:stroke fill markers"
         d="M 364.12253,223.70926 V 201.497 h 33.3184 33.3184 v 22.21226 22.21227 h -33.3184 -33.3184 z"
         id="path4"
         transform="scale(0.26458333)" /><path
         style="display:inline;fill:#ffd500;fill-opacity:1;stroke:#000000;stroke-width:11.9931;stroke-linecap:square;stroke-linejoin:round;stroke-miterlimit:9.4;paint-order:stroke fill markers"
         d="m 184.36606,165.89022 c -9.23979,-3.29592 -18.08689,-9.77095 -23.47091,-17.17795 -5.1781,-7.1237 -5.18992,-7.14751 -16.33004,-32.89116 l -7.20898,-16.659202 6.68499,-1.07234 c 3.67674,-0.589787 120.81739,-1.125261 260.31257,-1.189943 202.30912,-0.09381 253.46538,0.283681 252.82597,1.865635 -18.09619,44.77132 -26.11923,56.84121 -43.13365,64.89049 l -9.55502,4.52034 -207.05006,-0.0684 c -170.00754,-0.0562 -208.12794,-0.45287 -213.07487,-2.21748 z"
         id="path5"
         transform="scale(0.26458333)" /><path
         d="m 105.2772,78.124664 -2.25619,0.135392 C 78.197233,79.747966 59.153333,96.967468 55.619806,121.11997 l -0.360185,2.46083 0.0036,4.10156 0.0041,4.10156 0.345715,2.3704 c 3.281566,22.48501 21.334147,39.71895 44.229335,42.22326 0.958709,0.10452 3.681089,0.15454 6.049729,0.11059 l 4.30672,-0.0801 2.58124,-0.41703 c 21.26857,-3.43621 37.42246,-19.4494 41.20885,-40.8497 l 0.44907,-2.5368 0.10593,-4.02818 0.10594,-4.02766 -0.24443,-2.43241 C 152.03491,98.501668 132.76692,80.207745 108.31319,78.354624 Z m 2.19884,8.536944 2.08101,0.14263 c 2.68652,0.18398 5.7039,0.80468 8.71419,1.79317 2.2577,0.74136 5.3604,2.13082 5.3604,2.40037 0,0.0669 -0.72852,1.29761 -1.61902,2.73472 -0.89051,1.43712 -1.76918,2.90245 -1.95234,3.25665 l -0.3328,0.64389 0.29404,0.70486 c 0.34645,0.82916 1.02674,1.324367 2.04639,1.489832 l 0.73536,0.119375 0.51728,-0.338995 c 0.28445,-0.186385 1.39013,-1.674582 2.45721,-3.307292 1.06707,-1.63272 2.02156,-2.96881 2.12132,-2.96881 0.47557,0 4.10141,3.00467 6.41459,5.31595 l 2.58176,2.579692 1.28054,1.91409 c 0.70433,1.05284 1.24984,1.92952 1.21233,1.9482 -2.39264,1.19308 -6.34277,3.54988 -6.68228,3.98684 -0.9244,1.18976 0.37213,3.73776 1.90169,3.73776 0.34956,0 4.14063,-2.03094 6.02341,-3.22668 l 1.10587,-0.70228 0.19172,0.27285 c 1.65916,2.35397 3.52205,8.52795 4.11603,13.64154 l 0.26665,2.29444 -3.74809,0.0636 -3.74757,0.0636 -0.53227,0.53278 -0.53227,0.53279 -0.10955,0.81804 -0.11007,0.81803 0.34003,0.65784 c 0.48841,0.94448 0.97397,1.04955 4.83329,1.04955 1.90348,0 3.49705,0.0694 3.54139,0.154 0.12967,0.24763 -0.61769,5.12464 -1.07642,7.02386 -0.47831,1.98031 -1.72613,5.50685 -2.68356,7.58403 l -0.64647,1.40302 -0.9524,-0.55966 c -0.5237,-0.30791 -1.93075,-1.08417 -3.12694,-1.72496 l -2.17506,-1.1653 h -0.55242 c -0.30392,0 -0.8082,0.13211 -1.12034,0.29352 l -0.56741,0.29352 -0.37052,0.82166 -0.37052,0.82165 0.13591,0.54312 c 0.19908,0.7932 0.78869,1.24989 3.94498,3.05615 1.562,0.89389 2.87285,1.64972 2.913,1.67948 0.2203,0.16354 -3.27174,4.40991 -5.30097,6.44612 l -2.36006,2.36781 -1.94356,1.35289 -1.94406,1.35341 -1.90635,-2.90112 c -2.01364,-3.06402 -2.68178,-3.82354 -3.36362,-3.82354 -0.71817,0 -1.84492,0.657 -2.25826,1.31672 l -0.39584,0.63149 0.10232,0.68316 0.10232,0.68264 1.86139,2.86495 c 1.02399,1.57561 1.81433,2.9421 1.75596,3.0365 -0.0583,0.0944 -1.00687,0.56712 -2.10788,1.05058 -4.17422,1.83293 -8.22709,2.92632 -11.74295,3.16829 -0.95874,0.066 -1.99718,0.15945 -2.30735,0.20774 l -0.56379,0.0879 v -3.67627 -3.67677 l -0.23203,-0.5085 c -0.66121,-1.45122 -3.35713,-1.32209 -3.98942,0.1912 l -0.29042,0.69505 v 3.49281 3.49281 l -0.46147,-0.0269 c -4.776057,-0.28206 -9.534317,-1.43533 -13.900407,-3.36827 -1.18075,-0.52274 -2.18111,-0.98353 -2.22312,-1.02423 -0.042,-0.0407 0.71258,-1.30081 1.6769,-2.80034 2.4887,-3.86998 2.55668,-4.10172 1.57148,-5.3542 l -0.4253,-0.54105 -0.81959,-0.22066 c -1.49176,-0.40169 -1.67632,-0.24563 -4.30981,3.64577 -1.01141,1.49451 -1.88863,2.71715 -1.94924,2.71715 -0.0606,0 -0.95523,-0.57662 -1.98799,-1.28158 l -1.87792,-1.28157 -2.3766,-2.35851 c -2.00695,-1.99155 -5.52421,-6.29102 -5.52421,-6.75256 0,-0.0761 0.43833,-0.3486 0.9741,-0.60565 2.13925,-1.02639 5.40542,-2.96103 5.69319,-3.37189 0.16783,-0.23961 0.30541,-0.79306 0.30541,-1.23041 v -0.7953 l -0.69763,-0.69712 -0.69712,-0.69763 -0.89193,0.001 -0.89194,5.2e-4 -0.63717,0.38861 c -0.97416,0.59402 -5.20903,2.89129 -5.32991,2.89129 -0.41872,0 -2.99008,-6.56048 -3.477304,-8.87181 -0.254998,-1.20967 -0.912089,-5.98354 -0.912089,-6.62595 v -0.23099 l 3.993553,-0.18552 3.99356,-0.185 0.43098,-0.43098 0.43098,-0.43099 0.11369,-0.84646 0.11369,-0.84697 -0.26717,-0.64389 -0.26665,-0.64441 -0.67593,-0.28267 -0.67593,-0.28215 h -3.60908 -3.609598 l 0.101802,-0.35915 c 0.05591,-0.19739 0.162907,-1.0511 0.237712,-1.89704 0.216269,-2.4458 0.836608,-5.363 1.641244,-7.71788 0.87598,-2.56368 2.37993,-6.02185 2.61896,-6.02185 0.0921,0 1.01604,0.49389 2.05311,1.09812 1.03706,0.60424 2.53609,1.44959 3.33106,1.87844 l 1.44539,0.7798 0.58653,-0.14728 c 0.32269,-0.081 0.90694,-0.46718 1.29811,-0.85835 l 0.71107,-0.71106 -0.10439,-0.92605 c -0.14258,-1.26491 -0.38281,-1.47693 -3.96048,-3.49022 l -3.12953,-1.76062 1.16169,-1.66191 c 0.63879,-0.91401 2.31232,-2.85334 3.71915,-4.309812 l 2.55799,-2.64842 2.24689,-1.61231 2.2474,-1.61282 0.231,0.35192 c 0.12725,0.19355 1.00266,1.61313 1.9451,3.15433 l 1.71359,2.801897 0.48886,0.22272 c 0.73499,0.334895 1.52001,0.26837 2.27635,-0.19275 l 0.67851,-0.413927 0.30954,-0.73949 0.30902,-0.74001 -0.25166,-0.60719 c -0.13832,-0.33402 -1.01369,-1.8452 -1.9451,-3.35801 l -1.69344,-2.75022 1.46968,-0.69815 c 4.07896,-1.93678 8.42143,-3.08584 12.578537,-3.32899 l 2.29029,-0.13384 0.0682,3.8411 0.0677,3.84163 0.66972,0.5979 0.67025,0.59789 0.663,-5.1e-4 c 0.85133,-9.9e-4 1.95008,-0.67099 2.20659,-1.34566 0.10998,-0.28927 0.20076,-1.65077 0.20154,-3.02514 9.7e-4,-1.37437 0.0576,-2.96098 0.12557,-3.5264 z m 22.37899,16.923512 -2.34301,1.46193 c -1.97446,1.23204 -7.99105,4.9071 -18.63762,11.3838 l -2.14509,1.30483 -1.44384,0.005 -1.44384,0.005 -1.3565,0.47853 c -2.752439,0.97164 -4.722367,2.72144 -6.043527,5.36711 l -0.72192,1.44539 -0.22169,1.49448 -0.22221,1.495 0.22066,1.33119 c 0.12133,0.73222 0.49763,1.92301 0.83612,2.64635 l 0.61547,1.31516 0.98599,0.98444 c 1.28197,1.27972 3.011667,2.25472 4.619837,2.60397 v -0.001 c 2.38656,0.51829 4.30332,0.31147 6.41356,-0.69195 3.14548,-1.49566 5.54601,-5.12815 5.79654,-8.77207 l 0.10129,-1.47071 7.47551,-9.09092 c 4.11165,-4.9999 7.89914,-9.67781 8.41654,-10.39523 l 0.94051,-1.30431 v -0.6103 c 0,-0.70954 -0.33017,-0.9772 -1.21181,-0.98185 z"
         style="display:inline;fill:#000000;fill-opacity:1"
         id="path1-5" /></g></g></svg>
